<svg width="66" height="60" viewBox="0 0 66 60" fill="none" xmlns="http://www.w3.org/2000/svg">
<path d="M64.9958 26.6305C64.945 25.9184 64.538 25.4097 63.8767 25.1553C60.0107 23.7819 57.1621 21.2384 55.1783 17.4233C53.9065 15.0326 53.2453 12.7943 53.0926 10.607C53.0418 9.79306 53.0418 8.97917 53.1435 8.16528C53.1944 7.60573 53.2961 7.09704 53.3979 6.53749C53.4487 6.43576 53.4487 6.33402 53.4487 6.23228V5.77447C53.3979 5.21492 53.0926 4.7571 52.4822 4.40108C51.7701 3.99414 51.0579 3.53632 50.3458 3.12932L49.9388 2.87498C48.8706 2.21369 47.6497 1.50159 46.5307 0.789318C45.6659 0.229767 44.852 0.484108 44.496 0.687581C44.3434 0.789318 44.1399 0.891054 43.9364 1.04366L43.7329 1.19626C43.0716 1.75582 42.3086 2.31537 41.4947 2.77312C41.1387 2.9766 40.8334 3.1292 40.4774 3.23094C37.4762 4.29917 34.7292 4.75699 32.1859 4.60432C28.7268 4.40085 25.6747 3.07827 22.8771 0.585787C21.9614 -0.228106 21.1475 -0.075501 20.4354 0.331445C18.5024 1.45055 16.4676 2.56965 14.3821 3.68875C13.9243 3.94309 13.6191 4.2483 13.4665 4.65525C13.4156 4.80785 13.3647 4.90959 13.3647 5.0622C13.3139 5.31654 13.3647 5.57088 13.4156 5.87609C13.5173 6.63911 13.6191 7.35133 13.6191 8.06337V8.11423C13.67 8.97899 13.6191 9.84376 13.5173 10.7085C13.4156 11.6241 13.2121 12.5397 12.9069 13.4045C11.8387 16.6092 9.65136 19.5087 6.29405 22.2048C6.03971 22.4083 5.7345 22.6118 5.37842 22.8152C4.56453 23.273 3.6489 23.5783 2.83501 23.8835H2.63153C2.37719 23.9343 2.17372 24.0361 2.02111 24.1378C1.5633 24.3921 1.30896 24.6974 1.15635 25.1552C1.10549 25.3078 1.05462 25.4095 1.05462 25.5621V25.613V25.8673V25.9691V27.0373C1.05462 27.6986 1.05462 28.3091 1.00375 28.9195V29.9877V30.1912C1.00375 31.0559 0.952881 31.8699 0.952881 32.7346V32.9381V33.2942C1.05462 34.0572 1.46156 34.5659 2.27546 34.871C5.7345 36.0409 8.37965 38.381 10.6179 42.1451C12.5 45.3498 13.2121 48.5545 12.8051 51.9118C12.7543 52.4714 12.6525 53.0817 12.4999 53.6413C12.4999 53.6922 12.4491 53.794 12.4491 53.8448C12.3473 54.557 12.6525 55.1166 13.3647 55.5235C15.6538 56.9478 17.5867 58.1178 19.5706 59.2878C19.7741 59.3895 20.1302 59.593 20.5371 59.593C20.7915 59.593 21.0967 59.5421 21.351 59.3895C21.5036 59.2878 21.7071 59.1352 21.8597 58.9826C22.521 58.3213 23.284 57.7617 24.1996 57.2531C26.8448 55.7778 30.5073 55.1166 34.1189 55.4727C37.8323 55.8288 41.037 57.2022 42.9192 59.237C43.2244 59.5931 43.6822 59.9491 44.2925 60H44.3943C44.8012 60 45.2082 59.8983 45.666 59.5931C46.7343 58.9826 47.8025 58.3722 48.5147 58.0162C49.2268 57.6092 50.295 57.0497 51.4142 56.4393C52.0246 56.0833 52.3807 55.7272 52.5333 55.3202C52.5842 55.1676 52.6351 55.0659 52.6351 54.9133C52.6859 54.5572 52.6351 54.2011 52.5333 53.8959C52.4316 53.489 52.3807 53.1329 52.279 52.6751C52.2281 52.0138 52.1772 51.3017 52.2281 50.5894C52.279 49.7755 52.4316 48.8599 52.6351 47.9952C52.9403 46.8253 53.3981 45.6045 53.9576 44.4344C55.5854 41.1789 58.0271 38.432 60.7232 36.9568C61.5879 36.4482 62.5544 36.0921 63.4701 35.8886C63.877 35.7869 64.4366 35.5834 64.7418 34.973C64.7927 34.8712 64.8436 34.7186 64.8436 34.566C64.8436 34.5152 64.8944 34.4643 64.8944 34.3626C64.8944 34.2608 64.8944 34.1591 64.9453 34.0574C64.9453 33.4978 64.9962 32.9891 64.9962 32.4296C65.047 30.5474 65.047 28.6653 65.047 26.8849C64.9962 26.834 64.9962 26.7323 64.9962 26.6305H64.9958ZM52.177 32.5312C51.9735 34.159 51.5157 35.7868 50.8544 37.3637C49.2267 41.2806 46.3271 44.6887 42.3595 46.9778C39.053 48.7582 35.3905 49.5721 31.728 49.3686C25.3694 48.9616 19.6219 45.5026 16.3663 40.0597C14.0772 36.1428 13.1617 31.7683 13.7212 27.4444C13.8229 26.6305 13.9755 25.8166 14.2299 25.0027C14.4842 24.0362 14.7894 23.1206 15.1964 22.2558C15.2981 22.0015 15.4507 21.6963 15.5524 21.442C15.5524 21.3911 15.6033 21.3911 15.6033 21.3402C17.3328 17.9321 20.0797 15.0835 23.5897 13.0996C26.8452 11.3192 30.4568 10.4544 34.0685 10.6579C35.5438 10.7596 37.0697 11.014 38.494 11.4718C43.5299 12.9978 47.7012 16.5077 50.1432 21.2894C52.0761 24.8502 52.6866 28.767 52.1779 32.5314L52.177 32.5312Z" fill="white"/>
<path d="M45.361 22.1043C44.5979 22.206 43.428 22.3586 41.7494 22.5112C40.8846 22.613 39.9181 22.7147 38.9517 22.8673C38.7991 22.6639 38.6465 22.5112 38.443 22.3078C37.4765 21.3413 36.3065 20.5783 34.933 20.0696C33.6104 19.5609 32.1353 19.3065 30.6091 19.3574C29.0831 19.4591 27.5571 19.8152 26.0818 20.5273C23.1823 21.9007 20.7406 24.6477 19.7232 28.0558C19.2145 29.7345 19.0111 31.6166 19.2145 33.4479C19.2145 33.9057 19.3671 34.3635 19.418 34.8213C19.4689 35.279 19.6215 35.7369 19.7741 36.1946C20.0793 37.1103 20.4354 38.0259 20.944 38.8398L20.4862 39.145C19.7232 38.0768 19.0619 36.9068 18.604 35.5842C15.6536 27.9032 19.6214 19.2041 27.4551 16.2543C34.1697 13.7617 41.5959 16.356 45.3607 22.1041L45.361 22.1043Z" fill="white"/>
<path d="M28.2187 29.785C28.0661 31.8197 29.3378 33.6 31.3217 34.1088C32.5425 34.414 33.7124 34.1597 34.9842 33.3458C36.9172 32.074 46.4296 26.1225 47.0903 25.7156C47.3955 25.5121 47.5481 25.156 47.3955 24.7999C47.2938 24.5456 47.0903 24.3421 46.7851 24.2913H46.5816C45.9203 24.393 33.1012 25.919 31.9315 26.0716C29.8968 26.2242 28.3708 27.7503 28.2181 29.785L28.2187 29.785Z" fill="white"/>
</svg>
