<svg width="54" height="60" viewBox="0 0 54 60" fill="none" xmlns="http://www.w3.org/2000/svg">
<path d="M53.1725 43.5496C53.2008 45.0913 52.6119 46.5805 51.5361 47.6851C50.4599 48.7901 48.9872 49.4189 47.4452 49.4314C45.9035 49.4439 44.4205 48.8393 43.3265 47.7521L29.3973 32.7723L29.3978 32.7728C30.1841 32.1875 30.9264 31.5452 31.6189 30.8516C32.6989 29.8915 33.7213 28.8692 34.6808 27.7892C35.3922 27.0856 36.0545 26.3334 36.6622 25.5382L51.311 39.4673V39.4668C52.4778 40.5054 53.1536 41.9874 53.172 43.5495L53.1725 43.5496ZM14.6925 38.5064C15.5416 39.3523 16.6912 39.8271 17.8894 39.8271C19.0876 39.8271 20.2372 39.3523 21.0862 38.5064L21.8667 37.696C22.9179 36.6663 23.3801 35.1775 23.0974 33.7338C24.5867 32.7785 26.0106 31.7253 27.3602 30.5815C28.1454 29.9721 28.8972 29.3209 29.6117 28.6304C30.6325 27.6997 31.5931 26.7391 32.5234 25.7187C33.2138 25.0037 33.8656 24.2525 34.4748 23.4672C35.6113 22.112 36.6641 20.6886 37.6268 19.2044C37.8927 19.2641 38.1644 19.2945 38.4371 19.2945C39.6291 19.2851 40.7708 18.8113 41.6194 17.9737L42.3999 17.1634H42.3994C43.2495 16.3227 43.728 15.1768 43.728 13.9812C43.728 12.786 43.2495 11.6401 42.3994 10.7995L32.8835 1.28357C32.0292 0.460142 30.8885 0 29.7018 0C28.5151 0 27.3744 0.460142 26.5196 1.28357L25.7092 2.09393C24.8648 2.93778 24.3895 4.08212 24.3885 5.27562C24.3874 5.66352 24.4481 6.04828 24.5685 6.41681C18.9035 10.1603 14.0539 15.0103 10.3097 20.6756C8.7686 20.2631 7.12388 20.6971 5.98679 21.8163L5.17644 22.6266C4.33991 23.4747 3.87035 24.6174 3.87035 25.8089C3.87035 26.9998 4.33991 28.1431 5.17644 28.9906L14.6925 38.5064ZM26.2348 52.8764H3.82808C3.03187 52.8764 2.26859 53.1926 1.70534 53.7553C1.1426 54.3186 0.826416 55.0818 0.826416 55.8781V58.4987C0.826416 58.897 0.98451 59.2786 1.26613 59.5603C1.54725 59.8419 1.92938 60 2.32724 60H27.7318C28.1301 60 28.5118 59.8419 28.7934 59.5603C29.0745 59.2786 29.2326 58.897 29.2326 58.4987V55.8781C29.2326 55.0818 28.9164 54.3186 28.3537 53.7553C27.7904 53.1926 27.0272 52.8764 26.2309 52.8764H26.2348ZM7.46113 45.0085C6.66492 45.0085 5.9011 45.3246 5.33839 45.8879C4.77565 46.4506 4.45894 47.2144 4.45894 48.0101V49.8863H25.6006L25.6011 48.0101C25.6011 47.2144 25.2849 46.4506 24.7216 45.8879C24.1589 45.3246 23.3951 45.0085 22.5989 45.0085H7.46113Z" fill="white"/>
</svg>
