<svg width="70" height="60" viewBox="0 0 70 60" fill="none" xmlns="http://www.w3.org/2000/svg">
<path d="M45.3456 13.7529C44.3636 13.7529 43.4606 14.3104 43.0181 15.1921L34.9102 31.2823C33.3342 34.397 38.0038 36.7558 39.5744 33.6476L45.3833 22.0988L46.3095 26.8832L39.4906 46.8315H65.0008L58.1878 26.8832L59.1034 22.0988L64.9244 33.6476C66.4951 36.7557 71.1647 34.397 69.5926 31.2823L61.4687 15.1921C61.0275 14.3104 60.1279 13.7529 59.1412 13.7529H55.8337C53.7561 14.7562 51.2646 14.8951 48.9663 13.9024C48.8613 13.8572 48.763 13.8021 48.6574 13.7529H45.3456Z" fill="white"/>
<path d="M45.3828 48.0825V56.7366C45.3828 60.8819 51.5945 60.8819 51.5945 56.7366V48.0825H45.3828Z" fill="white"/>
<path d="M52.9023 48.0825V56.7366C52.6824 61.0851 59.3246 61.0851 59.104 56.7366V48.0825H52.9023Z" fill="white"/>
<path fill-rule="evenodd" clip-rule="evenodd" d="M58.2928 9.18954C56.8484 12.5296 52.9729 14.0677 49.6321 12.6279C46.2921 11.1895 44.7594 7.30987 46.1978 3.97916C47.6423 0.639084 51.5178 -0.899047 54.8519 0.540772C58.1986 1.97923 59.7315 5.85406 58.2928 9.18954Z" fill="white"/>
<path d="M8.47324 13.7261C7.25536 13.7314 6.16902 14.5081 5.77764 15.6609L0.270276 31.7278C-0.964873 35.3269 4.43291 37.192 5.67202 33.5915L8.23665 26.0942V56.6544C8.23665 61.1154 14.9287 61.1154 14.9287 56.6544L14.928 38.8987H16.5439V56.6527C16.5439 61.1137 23.2359 61.1137 23.2359 56.6527V26.0942L25.7979 33.5915C27.0383 37.1906 32.4401 35.3269 31.1996 31.7278L25.6929 15.6609C25.3022 14.5081 24.2152 13.7313 22.9973 13.7261H20.141C17.9689 14.9546 15.2801 15.1984 12.8097 14.1334C12.5293 14.0118 12.2583 13.8742 11.9998 13.7261L8.47314 13.7267L8.47324 13.7261Z" fill="white"/>
<path fill-rule="evenodd" clip-rule="evenodd" d="M22.1232 9.17769C20.684 12.5123 16.8145 14.0452 13.4744 12.6067C10.1437 11.1729 8.61354 7.29801 10.0506 3.97393C11.4898 0.633858 15.3593 -0.898829 18.688 0.540819C22.0288 1.97795 23.5615 5.84289 22.123 9.17752L22.1232 9.17769Z" fill="white"/>
</svg>
