<svg width="60" height="60" viewBox="0 0 60 60" fill="none" xmlns="http://www.w3.org/2000/svg">
<g filter="url(#filter0_b_7_34)">
<path d="M57.8569 0.000220474H32.1426C31.5744 0.000220474 31.0291 0.225992 30.6273 0.627771C30.2255 1.02955 29.9998 1.57484 29.9998 2.14308V30.6859C35.2866 27.4736 39.9774 23.3701 43.8647 18.5572L41.2287 19.2857C40.4634 19.4694 39.6579 19.2307 39.116 18.6596C38.574 18.0885 38.3779 17.2715 38.6018 16.5167C38.8251 15.762 39.4345 15.1836 40.2003 15L48.7718 12.8571C49.4223 12.6959 50.1106 12.8485 50.6319 13.2689C51.1537 13.6899 51.4484 14.3303 51.4288 15V23.5714C51.4288 24.3372 51.0203 25.0446 50.3573 25.4273C49.6944 25.8099 48.8774 25.8099 48.2145 25.4273C47.5515 25.0446 47.1431 24.3372 47.1431 23.5714V21.4286C42.4125 27.274 36.5904 32.1429 30.0002 35.7637V57.8571C30.0002 58.4254 30.226 58.9707 30.6277 59.3724C31.0295 59.7742 31.5748 60 32.1431 60H57.8573C58.4256 60 58.9709 59.7742 59.3726 59.3724C59.7744 58.9707 60.0002 58.4254 60.0002 57.8571V2.14286C60.0002 1.57462 59.7744 1.02933 59.3726 0.627551C58.9709 0.225771 58.4256 0 57.8573 0L57.8569 0.000220474Z" fill="white"/>
<path d="M25.714 33.043V10.7145H17.1426C16.5744 10.7145 16.0291 10.9402 15.6273 11.342C15.2255 11.7438 14.9998 12.2891 14.9998 12.8573V36.9651C18.7 36.0405 22.2912 34.7261 25.714 33.0439V33.043Z" fill="white"/>
<path d="M25.714 57.8574V37.7782C22.2687 39.3309 18.6804 40.5438 14.9998 41.4V57.8571C14.9998 58.4254 15.2255 58.9707 15.6273 59.3724C16.0291 59.7742 16.5744 60 17.1426 60H27.8569C27.2887 60 26.7434 59.7742 26.3416 59.3724C25.9398 58.9707 25.714 58.4254 25.714 57.8571V57.8574Z" fill="white"/>
<path d="M2.14261 38.5716C5.01441 38.5692 7.88094 38.3329 10.714 37.8647V21.4283H2.14261C1.57438 21.4283 1.02909 21.6541 0.627307 22.0559C0.225527 22.4577 -0.000244141 23.003 -0.000244141 23.5712V38.5712L2.14261 38.5716Z" fill="white"/>
<path d="M10.714 57.8573V42.1924C7.87763 42.6296 5.01257 42.8516 2.14261 42.8568H-0.000244141V57.8568C-0.000244141 58.4251 0.225527 58.9704 0.627307 59.3721C1.02909 59.7739 1.57438 59.9997 2.14261 59.9997H12.8569C12.2887 59.9997 11.7434 59.7739 11.3416 59.3721C10.9398 58.9704 10.714 58.4251 10.714 57.8568V57.8573Z" fill="white"/>
</g>
<defs>
<filter id="filter0_b_7_34" x="-20.0002" y="-20" width="100" height="100" filterUnits="userSpaceOnUse" color-interpolation-filters="sRGB">
<feFlood flood-opacity="0" result="BackgroundImageFix"/>
<feGaussianBlur in="BackgroundImageFix" stdDeviation="10"/>
<feComposite in2="SourceAlpha" operator="in" result="effect1_backgroundBlur_7_34"/>
<feBlend mode="normal" in="SourceGraphic" in2="effect1_backgroundBlur_7_34" result="shape"/>
</filter>
</defs>
</svg>
