<svg width="60" height="60" viewBox="0 0 60 60" fill="none" xmlns="http://www.w3.org/2000/svg">
<path d="M20.132 12.2368C15.79 12.2368 12.2373 15.7895 12.2373 20.1315C12.2373 24.4734 15.79 28.0261 20.132 28.0261C24.4739 28.0261 28.0266 24.4734 28.0266 20.1315C28.0266 15.7895 24.4739 12.2368 20.132 12.2368ZM16.1846 22.1051C15.0002 22.1051 14.211 21.3159 14.211 20.1315C14.211 18.9471 15.0002 18.1578 16.1846 18.1578C17.369 18.1578 18.1583 18.9471 18.1583 20.1315C18.1583 21.3159 17.369 22.1051 16.1846 22.1051ZM20.132 26.0525C18.9476 26.0525 18.1583 25.2632 18.1583 24.0788C18.1583 22.8944 18.9476 22.1051 20.132 22.1051C21.3164 22.1051 22.1056 22.8944 22.1056 24.0788C22.1056 25.2632 21.3164 26.0525 20.132 26.0525ZM20.132 18.1578C18.9476 18.1578 18.1583 17.3685 18.1583 16.1841C18.1583 14.9998 18.9476 14.2105 20.132 14.2105C21.3164 14.2105 22.1056 14.9998 22.1056 16.1841C22.1056 17.3685 21.3164 18.1578 20.132 18.1578ZM24.0793 22.1051C22.8949 22.1051 22.1056 21.3159 22.1056 20.1315C22.1056 18.9471 22.8949 18.1578 24.0793 18.1578C25.2637 18.1578 26.053 18.9471 26.053 20.1315C26.053 21.3159 25.2637 22.1051 24.0793 22.1051Z" fill="white"/>
<path d="M58.8157 32.7629C60.3948 31.1839 60.3948 28.8156 58.8157 27.2366L56.4474 24.8683C54.8684 23.2892 54.8684 20.9209 56.4474 19.3419L58.8157 16.9736C60.3948 15.3946 60.3948 13.0263 58.8157 11.4472L48.5528 1.18429C46.9737 -0.394764 44.6054 -0.394764 43.0264 1.18429L40.6581 3.55257C39.079 5.13162 36.7108 5.13162 35.1317 3.55257L32.7634 1.18429C31.1844 -0.394764 28.8161 -0.394764 27.2371 1.18429L24.8688 3.55257C23.2897 5.13162 20.9214 5.13162 19.3424 3.55257L16.9741 1.18429C15.3951 -0.394764 13.0268 -0.394764 11.4477 1.18429L1.18429 11.4477C-0.394764 13.0268 -0.394764 15.3951 1.18429 16.9741L3.55257 19.3424C5.13162 20.9214 5.13162 23.2897 3.55257 24.8688L1.18429 27.2371C-0.394764 28.8161 -0.394764 31.1844 1.18429 32.7634L3.55257 35.1317C5.13162 36.7108 5.13162 39.079 3.55257 40.6581L1.18429 43.0264C-0.394764 44.6054 -0.394764 46.9737 1.18429 48.5528L11.4472 58.8157C13.0263 60.3948 15.3946 60.3948 16.9736 58.8157L19.3419 56.4474C20.921 54.8684 23.2892 54.8684 24.8683 56.4474L27.2366 58.8157C28.8156 60.3948 31.1839 60.3948 32.7629 58.8157L35.1312 56.4474C36.7103 54.8684 39.0786 54.8684 40.6576 56.4474L43.0259 58.8157C44.6049 60.3948 46.9732 60.3948 48.5523 58.8157L58.8152 48.5528C60.3943 46.9737 60.3943 44.6054 58.8152 43.0264L56.4469 40.6581C54.8679 39.079 54.8679 36.7108 56.4469 35.1317L58.8157 32.7629ZM20.1319 31.9737C13.6186 31.9737 8.28986 26.6449 8.28986 20.1317C8.28986 13.6185 13.6186 8.28969 20.1319 8.28969C26.6451 8.28969 31.9738 13.6185 31.9738 20.1317C31.9738 26.6449 26.6451 31.9737 20.1319 31.9737ZM39.8685 51.7103C33.3553 51.7103 28.0265 46.3816 28.0265 39.8683C28.0265 33.3551 33.3553 28.0263 39.8685 28.0263C46.3817 28.0263 51.7105 33.3551 51.7105 39.8683C51.7105 46.3816 46.3817 51.7103 39.8685 51.7103Z" fill="white"/>
<path d="M39.8683 31.9735C35.5264 31.9735 31.9736 35.5262 31.9736 39.8682C31.9736 44.2101 35.5264 47.7628 39.8683 47.7628C44.2102 47.7628 47.763 44.2101 47.763 39.8682C47.763 35.5262 44.2102 31.9735 39.8683 31.9735ZM39.8683 33.9472C41.0527 33.9472 41.842 34.7364 41.842 35.9208C41.842 37.1052 41.0527 37.8945 39.8683 37.8945C38.6839 37.8945 37.8946 37.1052 37.8946 35.9208C37.8946 34.7364 38.6839 33.9472 39.8683 33.9472ZM35.921 41.8418C34.7366 41.8418 33.9473 41.0526 33.9473 39.8682C33.9473 38.6838 34.7366 37.8945 35.921 37.8945C37.1054 37.8945 37.8946 38.6838 37.8946 39.8682C37.8946 41.0526 37.1054 41.8418 35.921 41.8418ZM39.8683 45.7892C38.6839 45.7892 37.8946 44.9999 37.8946 43.8155C37.8946 42.6311 38.6839 41.8418 39.8683 41.8418C41.0527 41.8418 41.842 42.6311 41.842 43.8155C41.842 44.9999 41.0527 45.7892 39.8683 45.7892ZM43.8156 41.8418C42.6312 41.8418 41.842 41.0526 41.842 39.8682C41.842 38.6838 42.6312 37.8945 43.8156 37.8945C45 37.8945 45.7893 38.6838 45.7893 39.8682C45.7893 41.0526 45 41.8418 43.8156 41.8418Z" fill="white"/>
</svg>
