<svg width="52" height="60" viewBox="0 0 52 60" fill="none" xmlns="http://www.w3.org/2000/svg">
<g filter="url(#filter0_b_7_46)">
<path d="M6.71367 52.5014C6.71367 54.2764 5.27436 55.7157 3.49929 55.7157C1.72422 55.7157 0.284912 54.2764 0.284912 52.5014C0.284912 50.7263 1.72422 49.287 3.49929 49.287C5.27436 49.287 6.71367 50.7263 6.71367 52.5014Z" fill="white"/>
<path d="M15.2854 28.5938L13.8787 30.0005L15.2854 31.4072V28.5938Z" fill="white"/>
<path d="M15.2853 34.4384L12.3623 31.5153L4.78503 39.0916C2.6617 41.2273 1.81274 44.3197 2.54697 47.2404C2.86075 47.1792 3.17932 47.1467 3.49932 47.1438C4.91952 47.1457 6.28132 47.7106 7.28579 48.7146C8.28981 49.7191 8.85466 51.0809 8.85662 52.5011C8.85327 52.8206 8.82122 53.1392 8.75999 53.4525C11.0005 54.0107 13.3711 53.6419 15.3356 52.4294C15.3059 52.1003 15.2853 51.7674 15.2853 51.4296L15.2853 34.4384Z" fill="white"/>
<path d="M17.4282 9.30743V23.4201L24.485 16.3633L17.4282 9.30743Z" fill="white"/>
<path d="M26 14.8484L33.5763 7.27217C33.8164 7.033 34.08 6.82875 34.3368 6.61542C33.748 4.09081 32.0466 1.96895 29.7104 0.845818C27.3743 -0.277782 24.6545 -0.282081 22.3145 0.83386C19.9751 1.94981 18.2669 4.066 17.6694 6.58864C17.9296 6.80293 18.1817 7.03014 18.4195 7.27217L26 14.8484Z" fill="white"/>
<path d="M36.7146 25.563L39.6376 28.4861L47.2149 20.9098C49.3362 18.775 50.1853 15.6855 49.4529 12.7667C49.1391 12.8256 48.8201 12.8562 48.5006 12.8576C46.9082 12.8748 45.3924 12.175 44.3726 10.952C43.3528 9.72891 42.9366 8.11221 43.2399 6.54898C40.9994 5.99077 38.6288 6.35956 36.6643 7.57213C36.6944 7.90122 36.7145 8.23413 36.7145 8.57185L36.7146 25.563Z" fill="white"/>
<path d="M36.7146 31.4077L38.1213 30.001L36.7146 28.5942V31.4077Z" fill="white"/>
<path d="M4.78505 8.78581C3.1803 10.395 2.27856 12.5746 2.27856 14.8472C2.27856 17.1198 3.18022 19.2995 4.78505 20.9081L12.3613 28.4844L15.2854 25.5628V8.57127C15.2854 8.22735 15.3045 7.88869 15.337 7.55338C13.6964 6.53933 11.762 6.1093 9.84624 6.33317C7.93096 6.55655 6.14732 7.42089 4.78503 8.78552L4.78505 8.78581Z" fill="white"/>
<path d="M34.5717 23.4201V9.30743L27.5149 16.3628L34.5717 23.4201Z" fill="white"/>
<path d="M39.6376 31.5154L36.7145 34.4385V51.43C36.7145 51.7739 36.6954 52.1126 36.6628 52.4479C39.0684 53.9198 42.0432 54.1144 44.6194 52.9688C47.1957 51.8232 49.044 49.4837 49.5625 46.7122C50.081 43.9408 49.2033 41.0914 47.2148 39.092L39.6376 31.5154Z" fill="white"/>
<path d="M17.4282 26.4508V33.5503L25.9999 42.1219L34.5716 33.5503V26.4508L25.9999 17.8792L17.4282 26.4508ZM31.3572 30.0005C31.3572 31.4212 30.7928 32.7838 29.7883 33.7889C28.7834 34.7934 27.4206 35.3578 25.9999 35.3578C24.5792 35.3578 23.2166 34.7934 22.2115 33.7889C21.207 32.784 20.6426 31.4212 20.6426 30.0005C20.6426 28.5798 21.207 27.2171 22.2115 26.212C23.2164 25.2076 24.5792 24.6432 25.9999 24.6432C27.4201 24.6451 28.7819 25.21 29.7864 26.214C30.7904 27.2185 31.3552 28.5803 31.3572 30.0005Z" fill="white"/>
<path d="M17.4282 36.5813V50.694L24.485 43.6386L17.4282 36.5813Z" fill="white"/>
<path d="M51.7149 7.50002C51.7149 9.2751 50.2756 10.7144 48.5005 10.7144C46.7254 10.7144 45.2861 9.2751 45.2861 7.50002C45.2861 5.72495 46.7254 4.28564 48.5005 4.28564C50.2756 4.28564 51.7149 5.72495 51.7149 7.50002Z" fill="white"/>
<path d="M34.5717 50.694V36.5813L27.5149 43.6381L34.5717 50.694Z" fill="white"/>
<path d="M29.2144 30.0007C29.2144 31.7758 27.7751 33.2151 26 33.2151C24.225 33.2151 22.7856 31.7758 22.7856 30.0007C22.7856 28.2256 24.225 26.7863 26 26.7863C27.7751 26.7863 29.2144 28.2256 29.2144 30.0007Z" fill="white"/>
<path d="M25.9999 45.153L18.4236 52.7293C18.1816 52.9704 17.9285 53.1966 17.6736 53.4119C18.2701 55.9312 19.9748 58.0455 22.3105 59.1623C24.6462 60.2792 27.3622 60.2792 29.6978 59.1623C32.0335 58.0454 33.7383 55.9312 34.3347 53.4119C34.0745 53.1976 33.8224 52.9704 33.5847 52.7283L25.9999 45.153Z" fill="white"/>
</g>
<defs>
<filter id="filter0_b_7_46" x="-19.7151" y="-20" width="91.4299" height="100" filterUnits="userSpaceOnUse" color-interpolation-filters="sRGB">
<feFlood flood-opacity="0" result="BackgroundImageFix"/>
<feGaussianBlur in="BackgroundImageFix" stdDeviation="10"/>
<feComposite in2="SourceAlpha" operator="in" result="effect1_backgroundBlur_7_46"/>
<feBlend mode="normal" in="SourceGraphic" in2="effect1_backgroundBlur_7_46" result="shape"/>
</filter>
</defs>
</svg>
